<svg xmlns="http://www.w3.org/2000/svg" xmlns:xlink="http://www.w3.org/1999/xlink" width="64" height="64" viewBox="0 0 64 64">
    <defs>
        <path id="r9egjmlzxa" d="M31.205 32.927c1.024 1.036 1.058 2.684.107 3.76l-.124.133L4.674 63.202c-1.076 1.07-2.812 1.063-3.879-.016-1.024-1.037-1.058-2.684-.107-3.761l.124-.132L27.326 32.91c1.076-1.07 2.812-1.063 3.879.017zm8.234 4.593c1.021 1.04 1.05 2.687.096 3.762l-.124.13-15.543 15.373c-1.079 1.067-2.815 1.055-3.879-.028-1.02-1.04-1.05-2.687-.096-3.761l.125-.131L35.56 37.492c1.08-1.067 2.816-1.054 3.88.028zm-32.221 2.5L22.76 24.647c1.08-1.067 2.816-1.054 3.88.028 1.02 1.04 1.05 2.687.095 3.762l-.124.13L11.068 43.94c-1.079 1.067-2.815 1.055-3.879-.028-1.02-1.04-1.05-2.687-.096-3.761l.125-.131L22.76 24.647 7.218 40.02zM46.628 0C56.224 0 64 7.805 64 17.432c0 9.628-7.777 17.433-17.371 17.433-9.594 0-17.372-7.805-17.372-17.433C29.257 7.805 37.035 0 46.63 0zm0 5.505c-6.564 0-11.885 5.34-11.885 11.927 0 6.588 5.321 11.928 11.886 11.928 6.564 0 11.885-5.34 11.885-11.928 0-6.587-5.321-11.927-11.885-11.927z"/>
    </defs>
    <g fill="none" fill-rule="evenodd">
        <g>
            <g transform="translate(-688 -112) translate(688 112)">
                <mask id="gg191q06ib" fill="#fff">
                    <use xlink:href="#r9egjmlzxa"/>
                </mask>
                <use fill="#000" fill-rule="nonzero" xlink:href="#r9egjmlzxa"/>
                <g fill="#6B63B5" mask="url(#gg191q06ib)">
                    <path d="M0 0H64V64H0z"/>
                </g>
            </g>
        </g>
    </g>
</svg>
