<svg xmlns="http://www.w3.org/2000/svg" xmlns:xlink="http://www.w3.org/1999/xlink" width="32" height="32" viewBox="0 0 32 32">
    <defs>
        <path id="dr482nawda" d="M15.602 16.463c.512.519.53 1.342.054 1.881l-.062.066L2.337 31.6c-.538.535-1.406.532-1.94-.008-.511-.518-.528-1.342-.053-1.88l.062-.067 13.257-13.19c.538-.536 1.406-.532 1.94.007zm4.118 2.297c.51.52.525 1.344.048 1.88l-.062.066-7.772 7.687c-.54.533-1.408.527-1.94-.014-.51-.52-.524-1.344-.047-1.881l.062-.066 7.771-7.686c.54-.534 1.408-.527 1.94.014zM3.609 20.01l7.771-7.686c.54-.534 1.408-.528 1.94.014.51.52.525 1.343.048 1.88l-.062.066-7.772 7.686c-.54.534-1.408.527-1.94-.014-.51-.52-.524-1.343-.047-1.88l.062-.066 7.771-7.686L3.61 20.01zM23.314 0C28.111 0 32 3.902 32 8.716c0 4.814-3.889 8.716-8.686 8.716-4.797 0-8.685-3.902-8.685-8.716C14.629 3.902 18.517 0 23.314 0zm0 2.752c-3.282 0-5.943 2.67-5.943 5.964 0 3.294 2.661 5.964 5.943 5.964 3.282 0 5.943-2.67 5.943-5.964 0-3.293-2.66-5.964-5.943-5.964z"/>
    </defs>
    <g fill="none" fill-rule="evenodd">
        <g>
            <g>
                <g transform="translate(-497 -308) translate(477 292) translate(20 16)">
                    <mask id="g422s0492b" fill="#fff">
                        <use xlink:href="#dr482nawda"/>
                    </mask>
                    <use fill="#000" fill-rule="nonzero" xlink:href="#dr482nawda"/>
                    <g fill="#E8E8E4" mask="url(#g422s0492b)">
                        <path d="M0 0H32V32H0z"/>
                    </g>
                </g>
            </g>
        </g>
    </g>
</svg>
