<svg xmlns="http://www.w3.org/2000/svg" width="20" height="20" viewBox="0 0 20 20">
    <path fill="#E2AE37" fill-rule="evenodd" d="M16.954 5.298c3.165-1.096 3.117-2.991 3.014-3.55-.011-.055-.085-.07-.12-.025-.606.774-1.556.666-4.053 1.471-2.162.698-3.434 2.436-4.093 3.67-.984-.635-2.133-1.053-3.373-1.183 1.973-.762 3.009-2.287 3.009-2.287-1.587.316-2.139.012-2.139.012C12.45 2.036 11.917 0 11.917 0c-1.587 1.796-3.46 1.591-5.073 2.53-1.922 1.118-2.978 3.302-3.353 4.222C1.393 8.025 0 10.265 0 12.819 0 16.785 3.36 20 7.504 20c4.145 0 7.504-3.215 7.504-7.181 0-.698-.106-1.371-.3-2.009.315-.287.78-.64 1.416-.953.989-.484 1.37-1.15 1.416-1.383.007-.037-.022-.07-.062-.073-.831-.058-1.24-.31-1.394-.433-.037-.03-.027-.088.018-.107 2.022-.845 2.641-1.799 2.792-2.096.023-.043-.011-.092-.06-.092-1.177.012-1.689-.157-1.89-.258-.051-.027-.045-.099.01-.117"/>
</svg>
