<svg xmlns="http://www.w3.org/2000/svg" xmlns:xlink="http://www.w3.org/1999/xlink" width="9" height="14" viewBox="0 0 9 14">
    <defs>
        <path id="i0y9us650a" d="M8.094 4.375H4.939L6.103.825C6.213.41 5.898 0 5.47 0H1.532C1.203 0 .925.243.88.569L.006 7.13c-.052.394.254.744.65.744h3.246l-1.26 5.318c-.099.416.218.807.637.807.23 0 .448-.12.569-.328L8.66 5.359c.254-.434-.06-.984-.566-.984z"/>
    </defs>
    <g fill="none" fill-rule="evenodd">
        <g>
            <g>
                <g transform="translate(-464 -30) translate(464 24) translate(0 6)">
                    <mask id="pm6bhkdt6b" fill="#fff">
                        <use xlink:href="#i0y9us650a"/>
                    </mask>
                    <use fill="#FFF" fill-rule="nonzero" opacity=".75" xlink:href="#i0y9us650a"/>
                    <g fill="#E8E8E4" mask="url(#pm6bhkdt6b)">
                        <path d="M0 0H9V14H0z"/>
                    </g>
                </g>
            </g>
        </g>
    </g>
</svg>
