<svg xmlns="http://www.w3.org/2000/svg" width="18" height="16" viewBox="0 0 18 16">
    <path fill="#836444" fill-rule="evenodd" d="M8.89 5.785c1.235 0 2.312.832 2.588 1.987.254 1.066 1.11 1.707 2.694 2.224.756.246 1.92.896 1.92 2.161 0 1.926-1.8 3.843-7.203 3.843-5.402 0-7.203-1.917-7.203-3.843 0-1.265 1.165-1.915 1.92-2.161 1.584-.517 2.44-1.158 2.695-2.224.275-1.155 1.352-1.987 2.588-1.987zM17 4.673l.117.06.109.071c.659.49.743 1.635.17 2.636-.603 1.054-1.705 1.55-2.462 1.108-.756-.442-.881-1.654-.279-2.708.573-1 1.596-1.498 2.346-1.167zM3.124 5.84c.602 1.054.477 2.266-.28 2.707C2.086 8.99.983 8.493.381 7.44c-.602-1.053-.477-2.265.28-2.707.757-.442 1.859.054 2.462 1.108zM7.67 2.202c.376 1.466-.116 2.876-1.098 3.151-.981.275-2.083-.69-2.458-2.155C3.738 1.732 4.229.322 5.21.047c.982-.275 2.083.69 2.459 2.155zM12.567.047c.982.275 1.473 1.685 1.098 3.15-.376 1.466-1.477 2.43-2.459 2.156-.982-.275-1.473-1.685-1.097-3.15.375-1.466 1.476-2.431 2.458-2.156z"/>
</svg>
