<?xml version="1.0" encoding="UTF-8"?><svg id="a" xmlns="http://www.w3.org/2000/svg" viewBox="0 0 70 80"><path d="m22.79,10.41c-.08.09-.16.17-.25.13-.69-.03-1.37.06-2.06.08l-2,.11c.19,1.02.39,2.07.49,2.55.03.07.09.13.08.21-.26.51-.57.99-.91,1.47l6.91,33.33c.59.48,1.13.98,1.65,1.47.21.75.3,1.52.46,2.27l.54,2.86,3.19-.35c.81-.11,1.63-.14,2.43-.3.55.29,1.11.6,1.67.96l20.39-2.59c.24-.32.65-.73,1.29-1.36.13-.14.25-.3.46-.22.31-.02,1.1-.12,1.42-.15,0,0,.85-.09,1.75-.19l-.23-1.08c-.12-.52-.19-1.05-.36-1.55-.12-.11.13-.3.22-.46.24-.33.5-.64.77-.95l-7.27-34.35c-.21-.08-.43-.15-.62-.24-.16-.09-.72-.29-.81-.41,0-.07.03-.14,0-.2-.13-.6-.39-1.83-.62-2.91l-1.62.11-.8.05c-.14-.02-.26.14-.4.04-.52-.37-1-.74-1.49-1.17l-23.05,1.52c-.4.46-.81.91-1.24,1.33Zm5.73,8.89c.14-.21.24-.47.37-.7.1-.21.33-.35.36-.62-.06-1.22,1.38-1.4,2.09-.73.49.4.97.83,1.45,1.26,1.41,1.29,1.97-.17,3.66,1.35.43.34.96.84,1.31.36.52-.58.93-1.46,1.72-1.49.39-.01.78,0,1.1-.25.62-.51.93-1.44,1.49-2.03.52-.65,1.57-.48,2.16.51,1.92,2.81,3.92,1.61,4.38,3.58.63,2.03-.51,3.41-1.68,3.93-.29.15-.52-.07-.38-.46.36-.53.8-.95,1.2-1.41.2-.24.32-.56.32-.98-.15-1.83-1.9-.72-2.01.3-.34,1.26-.11,2.75.05,4.18,1.05,3.82,3.58,6.96,6.11,9.12.36.26.64.93.44,1.35-1.02,1.36-2.14,2.59-2.3,4.8-.03.31-.05.31-.28.13-.43-.28-1.03-1.01-1.29-.32-.32.6-.64,1.19-.99,1.76-1.35,2.2-3.01.83-3.53,2.74-.22.65-.75,2.06-1.45,1.67-.24-.17-.5-.25-.73-.43-.45-.34-.87-.75-1.23-1.28-.27-.39-.74-.51-1.07-.5-1.7.41-3.35-.85-4.87-2.31-.57-.65-.89.14-1.22.55-.13.19-.18.19-.33-.06-.37-.66-.8-1.27-1.29-1.79-.81-.89-1.75-1.39-2.67-1.96-.31-.2-.82-.66-.79-1.12.17-.65.49-1.15.81-1.64.91-2.17,1.81-4.45,1.88-7.14.12-2.48-1.19-7.26-3.6-7.54-.6-.03-.79.46-.46,1.22.47,1.06,1.89,1.29,2.62,2.1.6,1.11-1.79-.11-2.06-.4-.89-.53-1.56-1.68-1.68-2.87-.25-1.83,1.53-1.27,2.39-2.89Zm41.42,39.11L57.66,1.96c-.26-1.2-1.3-2.02-2.53-1.96L8.47,2.51c-.34.02-.67.11-.97.26-.31.16-7.5,3.93-7.5,12.28,0,.17.02.35.05.52l12.08,58.46c.73,3.51,3.79,5.97,7.21,5.97.33,0,.67-.02,1.01-.07l45.14-6.41c.69-.1,1.3-.49,1.69-1.07.39-.59.52-1.31.35-2l-2.06-8.65,2.41-.35c.68-.1,1.28-.48,1.67-1.06.39-.57.53-1.29.38-1.97Zm-6.84,2.36c-2.17,1.37-3.22,6.23-3.44,7.98-.07.57-.51,1.01-1.06,1.09l-36.77,4.86c-.05,0-.11,0-.16,0-.29,0-.57-.1-.79-.29-1.48-1.27-3.5-5-.58-10.04.19-.33.53-.56.9-.61l41.09-5.31c.58-.06,1.12.27,1.31.83.19.56-.02,1.18-.51,1.49ZM14.47,9.31c-.22-1.11.61-2.18,1.71-2.24l4.11-.22c.68-.05,1.37-.04,2.05-.14.15-.09.4.25.53.32.31.25.62.52.92.8l23.2-1.53c.43-.49.86-.92,1.33-1.35.13-.12.27.02.4-.02l.8-.05,3.2-.21c.92-.06,1.73.58,1.92,1.48l.64,3c.04.1.31,1.65.4,1.68-.03.14-.48.57-.58.72-.14.16-.32.32-.47.48l7.27,34.35c.37.17.73.34,1.09.54.15.1.45.17.38.32.16,1.06.74,3.61.96,4.69.24,1.08-.52,2.16-1.6,2.27-1.04.1-4.22.46-5.21.58-.18.12-.33-.01-.49-.12-.56-.36-.97-.61-1.28-.83l-20.26,2.57c-.58.63-1.18,1.16-1.78,1.66-.82.01-1.63.16-2.44.23l-4.87.53c-.96.1-1.82-.57-2-1.51l-.86-4.56c-.13-.76-.32-1.51-.4-2.29.24-.53.49-1.06.77-1.59l-6.94-33.47c-.59-.37-1.13-.75-1.63-1.18-.04-.07,0-.15,0-.22-.15-.87-.71-3.75-.88-4.67ZM4.12,25.42c.03-.38.91-9.28,7.59-10.08.67-.08,1.28.41,1.36,1.1s-.4,1.31-1.08,1.39c-4.73.57-5.43,7.74-5.43,7.82-.06.65-.59,1.14-1.22,1.14-.04,0-.08,0-.11,0-.68-.06-1.17-.67-1.11-1.36Zm3.09,15.03c.03-.38.91-9.28,7.59-10.08.67-.08,1.28.41,1.36,1.1.08.69-.4,1.31-1.08,1.39-4.71.56-5.43,7.74-5.43,7.82-.06.65-.6,1.14-1.22,1.14-.04,0-.08,0-.12,0-.67-.06-1.17-.67-1.11-1.36Zm3.26,16.28c.03-.38.91-9.28,7.59-10.08.67-.09,1.28.41,1.36,1.1.08.69-.4,1.31-1.08,1.39-4.71.56-5.43,7.74-5.43,7.82-.06.65-.6,1.14-1.22,1.14-.04,0-.08,0-.12,0-.67-.06-1.17-.67-1.11-1.36Z" stroke-width="0"/></svg>
