<?xml version="1.0" encoding="UTF-8"?><svg id="a" xmlns="http://www.w3.org/2000/svg" viewBox="0 0 24 24"><path d="M22,3l-2,3v4.73c-.32-.08-.64-.15-1-.22V3l-2-3-2,3v7.08c-.32-.02-.66-.03-1-.04v-4.04l-2-3-2,3v4.04c-.34.01-.68.02-1,.04V3L7,0l-2,3v7.51c-.36.07-.68.14-1,.22v-4.73l-2-3L0,6v8l1,6c0,2.65,3.04,4,11,4s11-1.35,11-4l1-6V6l-2-3ZM20,12.8v.88c-2.06-.53-4.09-.8-6-.89v-.76c2.45.1,4.56.38,6,.76ZM10,12.04v.78c-2.61.17-4.73.58-6,.88v-.9c1.44-.39,3.55-.66,6-.76ZM5.28,15.48c1.18-.24,2.8-.5,4.72-.63v1.12c-1.8-.07-3.41-.24-4.72-.48ZM14,14.81c1.55.08,3.18.28,4.82.65-1.32.25-2.98.43-4.82.5v-1.15Z" fill="#231f20"/></svg>