<svg xmlns="http://www.w3.org/2000/svg" xmlns:xlink="http://www.w3.org/1999/xlink" width="14" height="14" viewBox="0 0 14 14">
    <defs>
        <path id="luwdqwhoha" d="M13.25 9.844V.656c0-.363-.293-.656-.656-.656H3.625C2.175 0 1 1.176 1 2.625v8.75C1 12.825 2.176 14 3.625 14h8.969c.363 0 .656-.293.656-.656v-.438c0-.205-.096-.39-.243-.511-.115-.421-.115-1.622 0-2.043.147-.117.243-.303.243-.508zM4.5 3.664c0-.09.074-.164.164-.164h5.797c.09 0 .164.074.164.164v.547c0 .09-.074.164-.164.164H4.664c-.09 0-.164-.074-.164-.164v-.547zm0 1.75c0-.09.074-.164.164-.164h5.797c.09 0 .164.074.164.164v.547c0 .09-.074.164-.164.164H4.664c-.09 0-.164-.074-.164-.164v-.547zm6.929 6.836H3.625c-.484 0-.875-.391-.875-.875 0-.481.394-.875.875-.875h7.804c-.052.468-.052 1.282 0 1.75z"/>
    </defs>
    <g fill="none" fill-rule="evenodd">
        <g>
            <g>
                <g transform="translate(-632 -30) translate(464 24) translate(168 6)">
                    <mask id="r92varjhab" fill="#fff">
                        <use xlink:href="#luwdqwhoha"/>
                    </mask>
                    <use fill="#000" fill-rule="nonzero" xlink:href="#luwdqwhoha"/>
                    <g fill="#E8E8E4" mask="url(#r92varjhab)">
                        <path d="M0 0H14V14H0z"/>
                    </g>
                </g>
            </g>
        </g>
    </g>
</svg>
