<svg xmlns="http://www.w3.org/2000/svg" xmlns:xlink="http://www.w3.org/1999/xlink" width="18" height="14" viewBox="0 0 18 14">
    <defs>
        <path id="1uj7ycc3ga" d="M7.014 5.928l2.37 2.986s-.454 2.8-2.094 4.105C5.652 14.323 0 13.95 0 13.95s.104-.632.3-1.515l2.587-3.068c.11-.128-.024-.317-.18-.26l-1.652.605c.394-1.14.895-2.188 1.493-2.666C4.186 5.74 7.014 5.928 7.014 5.928zM13.52 9.62c-1.203 0-2.182.979-2.182 2.185 0 1.205.976 2.184 2.182 2.184s2.182-.979 2.182-2.184c0-1.21-.979-2.185-2.182-2.185zM17.404.848l-.541-.683c-.15-.19-.424-.22-.613-.072L9.893 4.958 8.96 3.782c-.14-.175-.413-.142-.508.06L7.76 5.335l2.37 2.986 1.608-.34c.22-.046.312-.305.173-.48l-.933-1.173 6.358-4.865c.188-.15.218-.426.068-.615z"/>
    </defs>
    <g fill="none" fill-rule="evenodd">
        <g>
            <g>
                <g transform="translate(-737 -30) translate(464 24) translate(273 6)">
                    <mask id="2xqn79s12b" fill="#fff">
                        <use xlink:href="#1uj7ycc3ga"/>
                    </mask>
                    <use fill="#FFF" fill-rule="nonzero" opacity=".75" xlink:href="#1uj7ycc3ga"/>
                    <g fill="#E8E8E4" mask="url(#2xqn79s12b)">
                        <path d="M0 0H18V14H0z"/>
                    </g>
                </g>
            </g>
        </g>
    </g>
</svg>
